P3
10 10
255
106
106
174
106
106
174
106
106
174
64
64
166
21
21
157
0
0
153
192
192
192
192
192
192
149
149
183
106
106
174
106
106
174
106
106
174
106
106
174
64
64
166
21
21
157
0
0
153
192
192
192
192
192
192
149
149
183
106
106
174
96
96
172
96
96
172
96
96
172
48
48
162
24
24
157
0
0
153
192
192
192
192
192
192
144
144
182
96
96
172
82
82
169
82
82
169
82
82
169
54
54
164
27
27
158
0
0
153
192
192
192
192
192
192
164
164
186
82
82
169
96
96
172
96
96
172
96
96
172
64
64
166
32
32
159
0
0
153
192
192
192
192
192
192
160
160
185
96
96
172
115
115
176
115
115
176
115
115
176
76
76
168
38
38
160
0
0
153
192
192
192
192
192
192
153
153
184
115
115
176
144
144
182
144
144
182
144
144
182
96
96
172
48
48
162
0
0
153
192
192
192
192
192
192
144
144
182
144
144
182
192
192
192
192
192
192
192
192
192
128
128
179
64
64
166
0
0
153
192
192
192
192
192
192
128
128
179
192
192
192
192
192
192
192
192
192
192
192
192
192
192
192
96
96
172
0
0
153
192
192
192
192
192
192
192
192
192
192
192
192
192
192
192
192
192
192
192
192
192
192
192
192
192
192
192
0
0
153
192
192
192
192
192
192
192
192
192
192
192
192
